<?xml version="1.0" standalone="no"?>
<!DOCTYPE svg PUBLIC "-//W3C//DTD SVG 20010904//EN"
 "http://www.w3.org/TR/2001/REC-SVG-20010904/DTD/svg10.dtd">
<svg version="1.0" xmlns="http://www.w3.org/2000/svg"
 width="1224.000000pt" height="1584.000000pt" viewBox="0 0 1224.000000 1584.000000"
 preserveAspectRatio="xMidYMid meet">
<metadata>
Created by potrace 1.16, written by Peter Selinger 2001-2019
</metadata>
<g transform="translate(0.000000,1584.000000) scale(0.100000,-0.100000)"
fill="#000000" stroke="none">
<path d="M5835 13826 c-44 -7 -89 -16 -101 -20 -26 -8 -110 -184 -95 -199 6
-6 96 -47 201 -93 l191 -83 197 73 c153 57 198 78 200 92 1 11 -10 55 -26 99
-34 95 -39 99 -189 126 -120 22 -258 23 -378 5z"/>
<path d="M5567 13747 c-102 -53 -181 -110 -274 -201 -70 -66 -87 -98 -60 -109
6 -3 2 -6 -10 -6 -13 -1 -42 -21 -68 -48 -96 -101 -184 -330 -188 -491 l-2
-77 50 -3 50 -2 125 105 c69 58 131 112 139 120 20 20 75 364 60 381 -8 9 -34
14 -78 14 l-66 1 87 83 c98 93 201 166 288 204 40 17 60 31 60 43 0 32 -30 28
-113 -14z"/>
<path d="M6407 13734 c-13 -13 7 -35 49 -53 124 -55 297 -201 399 -336 37 -50
60 -72 70 -69 8 4 15 14 15 23 0 39 -171 232 -279 316 -108 82 -232 141 -254
119z"/>
<path d="M6440 13585 c-10 -12 -4 -25 36 -72 86 -102 217 -234 228 -230 30 10
14 43 -56 115 -41 43 -98 105 -127 140 -30 34 -57 62 -61 62 -4 0 -13 -7 -20
-15z"/>
<path d="M6705 13263 c-91 -269 -132 -409 -125 -423 5 -8 67 -89 138 -180 78
-101 135 -164 145 -164 22 2 243 160 251 179 8 23 0 170 -14 245 -21 113 -72
243 -117 299 -15 18 -39 27 -118 42 -128 23 -152 24 -160 2z"/>
<path d="M5732 13051 c-106 -59 -198 -113 -203 -118 -7 -7 4 -90 30 -244 50
-287 58 -329 62 -334 3 -3 247 -41 391 -61 32 -4 48 -11 51 -24 2 -9 35 -58
73 -108 66 -87 96 -108 107 -78 6 15 -137 209 -158 214 -9 2 10 51 64 160 117
236 151 308 151 321 0 17 -340 376 -359 378 -9 2 -103 -46 -209 -106z"/>
<path d="M4956 12758 c-14 -55 8 -258 45 -406 25 -101 35 -122 54 -122 25 0
26 19 7 93 -42 151 -61 296 -62 450 0 18 -38 5 -44 -15z"/>
<path d="M5035 12770 c-17 -27 24 -329 58 -424 14 -40 40 -66 53 -53 4 4 -5
58 -20 120 -15 61 -33 168 -39 237 -10 102 -15 125 -29 128 -9 2 -19 -2 -23
-8z"/>
<path d="M7066 12608 c-2 -7 -11 -53 -20 -101 -38 -202 -127 -385 -265 -541
-59 -67 -68 -96 -31 -96 39 0 180 189 250 335 80 165 130 404 87 413 -9 2 -19
-2 -21 -10z"/>
<path d="M6821 12461 c-21 -39 -131 -343 -131 -361 0 -19 -8 -20 -220 -20
l-220 0 -34 -52 c-62 -99 -166 -285 -166 -299 0 -22 149 -151 168 -145 10 2
37 8 62 11 107 17 282 107 384 198 l50 43 -3 119 c-2 76 1 120 8 125 15 9 149
372 144 388 -7 18 -31 15 -42 -7z"/>
<path d="M5518 12295 c-40 -36 -76 -65 -80 -65 -5 0 -8 -7 -8 -15 0 -20 1 -20
-115 16 -55 17 -113 35 -130 40 -38 12 -54 5 -89 -37 -21 -25 -27 -41 -22 -58
11 -46 131 -211 211 -292 81 -82 230 -194 258 -194 8 0 31 18 50 40 l36 39
-43 93 c-24 51 -67 142 -95 203 -32 67 -48 111 -41 113 12 4 105 81 153 126
24 22 27 29 17 41 -7 8 -16 15 -21 15 -4 0 -41 -29 -81 -65z"/>
<path d="M5640 11765 c-23 -28 2 -37 152 -56 181 -23 237 -24 245 -4 3 9 3 19
-1 22 -4 4 -75 15 -159 24 -83 9 -168 20 -188 24 -26 5 -39 2 -49 -10z"/>
<path d="M5587 11693 c-21 -20 -4 -43 46 -61 112 -42 199 -58 364 -68 125 -8
156 -2 151 29 -3 21 -8 22 -158 29 -155 6 -247 22 -344 58 -60 23 -51 21 -59
13z"/>
<path d="M5578 11285 c-1 -1 -57 -6 -123 -9 -66 -4 -151 -9 -190 -11 -38 -3
-119 -7 -178 -11 -59 -3 -116 -7 -125 -8 -9 -2 -62 -7 -117 -10 -90 -7 -294
-26 -580 -56 -242 -25 -938 -121 -1225 -168 l-164 -28 -56 -241 c-30 -133 -58
-244 -61 -248 -4 -3 -60 2 -125 12 -90 13 -184 17 -384 17 -229 1 -285 -3
-410 -22 -176 -29 -374 -78 -506 -128 -116 -43 -286 -125 -282 -135 3 -8 167
-178 442 -459 95 -96 175 -180 179 -187 5 -7 -22 -27 -76 -56 -283 -155 -559
-405 -749 -677 -76 -110 -183 -298 -174 -307 3 -3 74 15 158 40 725 218 1320
338 1685 341 167 1 172 2 168 21 -3 11 -18 92 -35 180 -17 88 -42 214 -55 280
-37 186 -41 167 40 182 435 82 1152 188 1620 239 33 3 74 8 90 10 17 2 80 8
140 14 61 6 128 13 150 15 78 9 381 34 490 40 61 4 126 8 145 10 240 26 1409
26 1625 1 17 -2 84 -7 150 -11 102 -5 389 -28 635 -51 36 -3 200 -21 365 -40
591 -69 1034 -133 1590 -233 45 -8 45 -5 20 -126 -8 -38 -33 -167 -55 -285
-23 -118 -43 -222 -45 -230 -4 -13 12 -15 118 -14 112 1 257 -7 332 -19 17 -3
50 -8 75 -12 25 -3 87 -13 138 -21 83 -14 146 -26 392 -79 195 -43 538 -133
798 -212 84 -25 155 -43 158 -40 8 8 -77 163 -146 267 -200 299 -475 552 -783
720 -68 37 -76 44 -65 59 7 9 92 97 189 196 275 281 424 436 427 444 3 10
-150 85 -258 126 -201 77 -420 127 -677 155 -122 14 -521 5 -652 -15 -63 -9
-117 -13 -121 -8 -4 4 -31 114 -60 243 -28 129 -55 238 -58 241 -12 12 -737
120 -1127 168 -284 35 -644 72 -830 86 -44 3 -102 8 -130 11 -89 8 -157 12
-315 19 -85 4 -164 10 -175 12 -21 6 -1201 14 -1207 8z m-621 -219 c129 -34
228 -115 282 -230 18 -37 29 -72 24 -76 -10 -10 -197 -70 -217 -70 -8 0 -17
13 -21 29 -9 44 -58 105 -98 124 -137 65 -258 -77 -245 -288 10 -153 76 -245
177 -245 28 0 59 8 79 20 32 20 92 102 92 126 0 25 18 23 129 -12 126 -40 122
-32 74 -128 -129 -256 -491 -304 -692 -91 -88 93 -131 210 -131 360 0 157 51
288 146 374 112 103 264 143 401 107z m693 -376 l0 -370 209 0 210 0 3 -105 3
-105 -337 0 -338 0 0 370 0 370 -30 0 c-16 0 -30 3 -30 6 0 3 12 50 27 105
l26 99 129 0 128 0 0 -370z m760 38 c0 -315 1 -335 20 -366 32 -52 101 -68
161 -36 56 28 59 50 59 409 l0 325 126 0 125 0 -3 -362 c-3 -391 -1 -377 -60
-465 -36 -54 -97 -96 -179 -123 -52 -18 -80 -21 -149 -17 -150 8 -253 66 -315
178 l-30 54 -3 263 -3 262 -30 0 c-16 0 -29 2 -29 4 0 4 48 175 55 194 3 9 38
12 130 12 l125 0 0 -332z m1176 308 c99 -46 162 -156 151 -263 -6 -56 -44
-134 -75 -153 -16 -9 -16 -11 0 -20 83 -50 122 -118 122 -210 0 -115 -63 -213
-168 -261 -37 -17 -68 -19 -308 -19 l-268 0 0 370 0 370 -30 0 c-16 0 -30 3
-30 6 0 3 12 50 27 105 l26 99 251 0 c242 0 253 -1 302 -24z"/>
<path d="M7290 10780 l0 -70 66 0 c71 0 98 9 115 41 15 28 -4 73 -37 88 -14 6
-52 11 -84 11 l-60 0 0 -70z"/>
<path d="M7290 10411 l0 -91 80 0 c84 0 132 15 144 45 14 37 6 82 -19 105 -22
21 -38 24 -115 28 l-90 4 0 -91z"/>
<path d="M5060 9395 l-155 -245 -556 0 -556 0 -8 -97 c-4 -54 -9 -107 -11
-118 -15 -80 -33 -590 -29 -820 5 -290 17 -577 30 -700 2 -22 6 -71 10 -110 8
-95 12 -134 30 -290 45 -380 143 -849 252 -1195 300 -957 797 -1606 1478
-1931 360 -172 619 -196 940 -87 195 65 425 191 619 337 699 526 1169 1565
1326 2926 6 55 13 114 15 130 2 17 7 66 10 110 3 44 8 98 11 120 12 114 24
405 28 705 4 227 -14 720 -28 805 -2 11 -7 64 -11 118 l-8 97 -556 0 -556 0
-155 245 -155 245 -905 0 -905 0 -155 -245z m1965 -305 l157 -250 498 0 498 0
6 -24 c3 -14 10 -153 16 -309 14 -396 -3 -883 -45 -1285 -150 -1433 -604
-2428 -1330 -2913 -170 -114 -471 -245 -628 -274 -20 -4 -40 -11 -43 -16 -7
-12 -61 -11 -69 1 -3 6 -14 10 -25 10 -10 0 -80 20 -157 45 -921 297 -1516
1210 -1757 2695 -62 382 -90 695 -106 1175 -9 266 1 812 16 870 l6 25 498 0
498 0 157 250 157 250 748 0 748 0 157 -250z"/>
<path d="M5251 9035 l-134 -225 -173 0 -174 0 0 -1395 0 -1395 -37 0 -38 -1
38 -32 37 -32 0 -436 0 -436 91 -133 c148 -218 227 -318 344 -436 88 -88 125
-118 185 -148 l75 -37 5 541 5 542 39 -31 c22 -17 40 -30 42 -28 2 2 -17 66
-41 142 -38 118 -45 152 -44 220 l0 80 146 110 146 110 -147 3 -146 3 0 1619
0 1620 -43 0 -42 0 -134 -225z"/>
<path d="M6158 8203 l-3 -1058 -24 88 c-13 48 -27 90 -31 92 -5 3 -11 -7 -15
-23 -3 -15 -29 -102 -57 -194 l-51 -168 -189 -2 -188 -3 141 -110 c78 -60 147
-113 152 -117 7 -4 -10 -76 -47 -198 -32 -106 -56 -193 -54 -195 2 -1 71 51
155 116 l152 118 31 -25 30 -26 0 -1199 0 -1199 28 6 c157 34 448 161 600 260
l72 48 0 1491 0 1490 55 43 c34 27 60 40 68 36 6 -5 62 -47 122 -94 61 -47
127 -98 147 -113 l36 -28 -15 48 c-8 26 -35 115 -59 197 -45 148 -45 150 -25
165 11 9 81 63 155 121 l136 105 -194 3 -193 2 -36 118 c-20 64 -46 152 -59
195 -26 91 -19 101 -88 -128 l-49 -160 0 671 c-1 603 -3 672 -17 678 -9 3
-166 6 -350 6 l-334 0 -2 -1057z"/>
<path d="M7555 8758 c-3 -7 -4 -798 -3 -1758 l3 -1745 66 135 c247 504 413
1196 483 2020 34 400 44 1085 19 1308 l-6 52 -279 0 c-214 0 -280 -3 -283 -12z"/>
<path d="M670 4743 c0 -11 80 -162 116 -220 198 -313 482 -583 802 -763 82
-46 91 -54 80 -68 -7 -9 -95 -100 -194 -202 -246 -251 -418 -430 -422 -439 -3
-9 160 -87 268 -129 141 -56 351 -107 560 -139 163 -24 587 -24 754 1 65 9
122 13 126 9 5 -4 32 -114 61 -243 28 -129 56 -238 61 -241 6 -3 73 -16 151
-28 78 -12 162 -26 187 -31 50 -10 294 -44 645 -90 211 -28 512 -63 655 -76
30 -2 73 -7 95 -9 22 -3 72 -7 110 -10 39 -3 90 -7 115 -9 44 -4 257 -19 500
-35 162 -11 1396 -11 1565 0 331 21 608 42 825 64 97 10 508 56 579 65 237 31
618 85 736 105 50 9 142 24 205 33 113 18 115 19 122 48 4 16 28 124 54 239
26 116 50 214 54 219 5 4 61 0 127 -10 166 -25 587 -25 758 0 206 30 381 74
563 142 104 39 262 113 262 123 -1 7 -141 154 -389 406 -92 94 -184 189 -204
212 l-38 41 84 45 c287 157 561 406 759 692 57 82 168 276 168 293 0 5 -42 -3
-92 -19 -415 -131 -1108 -297 -1388 -333 -19 -3 -75 -10 -125 -17 -49 -7 -163
-13 -252 -13 -140 -1 -162 -3 -158 -16 6 -21 113 -579 117 -610 3 -24 2 -24
-207 -61 -115 -21 -331 -56 -480 -79 -148 -23 -281 -43 -295 -45 -14 -2 -63
-9 -110 -15 -47 -6 -96 -13 -110 -15 -52 -8 -519 -65 -620 -75 -58 -6 -123
-12 -145 -15 -78 -9 -491 -44 -600 -50 -60 -4 -126 -8 -145 -10 -226 -26
-1404 -25 -1603 0 -15 2 -83 6 -150 10 -304 16 -1067 91 -1377 136 -41 6 -93
12 -115 15 -22 2 -69 8 -105 14 -36 5 -175 26 -310 46 -135 19 -335 51 -445
71 -110 19 -220 38 -245 42 -51 7 -50 3 -25 126 8 39 32 165 55 280 22 116 42
219 45 230 4 19 -1 20 -163 21 -92 1 -201 6 -242 13 -41 6 -97 13 -125 16 -58
7 -86 12 -330 60 -282 56 -984 239 -1127 294 -16 6 -28 8 -28 4z m2804 -1771
c52 -112 100 -210 105 -219 7 -13 22 8 66 98 113 225 148 285 156 263 5 -10
31 -154 59 -319 28 -165 54 -311 57 -324 6 -24 6 -24 -58 -17 -35 4 -65 9 -67
11 -2 2 -12 61 -23 131 -11 71 -22 136 -25 144 -4 9 -36 -46 -81 -134 -41 -82
-78 -145 -83 -140 -4 5 -41 79 -81 164 -39 85 -75 159 -79 163 -4 4 -17 -56
-30 -134 l-23 -142 -60 7 c-33 3 -61 7 -63 9 -1 1 15 97 37 212 21 116 48 263
60 328 12 65 25 115 29 110 4 -4 51 -99 104 -211z m5496 139 l0 -68 -72 -7
c-120 -11 -108 19 -108 -270 l0 -253 -37 -7 c-21 -3 -53 -6 -70 -6 l-33 0 0
251 0 251 -90 -7 -90 -7 0 66 c0 36 3 66 8 67 4 0 106 13 227 28 121 16 230
29 243 30 21 1 22 -3 22 -68z m-4740 -44 l125 -12 3 -69 3 -68 -63 6 c-35 4
-84 9 -110 12 l-48 6 0 -60 0 -59 90 -7 90 -8 0 -68 c0 -51 -3 -68 -12 -65 -7
2 -48 6 -90 10 l-78 6 0 -64 0 -65 108 -8 107 -9 3 -67 3 -68 -28 0 c-15 0
-93 7 -173 15 -80 8 -148 15 -152 15 -5 0 -8 146 -8 324 l0 325 53 -6 c28 -3
108 -10 177 -16z m4118 -5 c44 -32 65 -76 65 -137 0 -63 -24 -119 -67 -160
l-35 -32 85 -124 c95 -138 95 -133 -10 -141 l-59 -5 -76 118 c-42 66 -79 119
-83 119 -5 0 -8 -56 -8 -124 0 -140 3 -136 -93 -136 l-47 0 2 318 3 317 50 6
c28 4 93 6 145 5 82 -1 99 -4 128 -24z m-3697 -193 l174 -197 3 174 2 174 34
0 c18 0 48 -3 65 -6 l31 -6 0 -329 c0 -204 -4 -329 -10 -329 -5 0 -87 86 -182
191 l-173 192 -3 -172 c-3 -192 5 -177 -86 -165 l-46 7 0 334 c0 184 4 333 8
331 5 -1 87 -91 183 -199z m3114 170 c59 -28 119 -97 142 -162 26 -75 23 -204
-6 -278 -72 -185 -276 -268 -420 -171 -88 59 -132 152 -133 277 0 160 86 296
217 343 53 19 150 14 200 -9z m-2340 -34 c32 -9 73 -24 90 -35 33 -21 33 -22
19 -138 l-5 -43 -38 34 c-149 134 -339 6 -292 -196 23 -101 107 -166 197 -152
l44 6 0 50 0 49 -55 0 -55 0 0 65 0 66 118 -3 117 -3 0 -160 0 -160 -60 -24
c-89 -36 -191 -35 -267 2 -94 46 -155 128 -178 242 -38 185 65 373 222 404 64
13 78 12 143 -4z m1291 -6 l44 -11 0 -75 c0 -41 -3 -73 -7 -71 -98 49 -145 58
-177 35 -34 -25 -17 -68 39 -104 157 -99 185 -133 185 -229 0 -147 -110 -231
-270 -204 -36 6 -70 14 -76 18 -6 4 -14 44 -17 89 l-6 82 45 -24 c101 -53 194
-39 194 29 0 28 -25 51 -121 114 -59 39 -81 59 -98 94 -47 99 -10 212 84 254
37 16 121 18 181 3z m449 0 c83 -23 143 -119 129 -207 -15 -97 -86 -164 -192
-184 l-62 -12 0 -113 0 -113 -70 0 -70 0 0 314 0 315 48 4 c102 8 179 6 217
-4z m-1131 -309 c72 -168 135 -313 139 -322 6 -16 -1 -18 -64 -18 l-70 0 -19
45 -19 45 -115 0 -114 0 -18 -45 -17 -45 -69 0 c-40 0 -68 4 -66 10 22 63 285
639 291 637 4 -1 68 -140 141 -307z"/>
<path d="M8160 2884 l0 -87 41 6 c53 7 79 33 86 84 7 56 -20 83 -82 83 l-45 0
0 -86z"/>
<path d="M7585 2901 c-65 -40 -95 -100 -95 -188 1 -114 61 -189 147 -180 88 9
147 90 147 202 0 137 -105 224 -199 166z"/>
<path d="M7040 2805 c0 -95 5 -100 75 -71 90 38 64 156 -35 156 l-40 0 0 -85z"/>
</g>
</svg>
